<?xml version="1.0" encoding="UTF-8"?>
<svg id="Capa_1" data-name="Capa 1" xmlns="http://www.w3.org/2000/svg" viewBox="0 0 256 256">
  <defs>
    <style>
      .cls-1 {
        fill: #fef0a4;
      }

      .cls-2 {
        fill: #fff3cf;
      }

      .cls-3 {
        fill: #cccbbc;
      }

      .cls-4 {
        fill: #fbeb7f;
      }

      .cls-5 {
        fill: #f9e978;
      }

      .cls-6 {
        fill: #a7a38e;
      }

      .cls-7 {
        fill: #c6c4bc;
      }

      .cls-8 {
        fill: #f2e559;
      }

      .cls-9 {
        fill: #a8a48d;
      }

      .cls-10 {
        fill: #fcea78;
      }

      .cls-11 {
        fill: #bebcaa;
      }

      .cls-12 {
        fill: #c89226;
      }

      .cls-13 {
        fill: #fbe872;
      }

      .cls-14 {
        fill: #faeb83;
      }

      .cls-15 {
        fill: #c79127;
      }

      .cls-16 {
        fill: #ede9e2;
      }

      .cls-17 {
        fill: #f9db0b;
      }

      .cls-18 {
        fill: #dfddd6;
      }

      .cls-19 {
        fill: #a8a58d;
      }

      .cls-20 {
        fill: #fbe96d;
      }

      .cls-21 {
        fill: #fadb0c;
      }

      .cls-22 {
        fill: #fff3de;
      }

      .cls-23 {
        fill: #fada0b;
      }

      .cls-24 {
        fill: #a9a28e;
      }

      .cls-25 {
        fill: #fff4df;
      }

      .cls-26 {
        fill: #d8d8cd;
      }

      .cls-27 {
        fill: #f9e04c;
      }

      .cls-28 {
        fill: #fef4c4;
      }

      .cls-29 {
        fill: #f8ed77;
      }

      .cls-30 {
        fill: #fada09;
      }

      .cls-31 {
        fill: #fadb09;
      }
    </style>
  </defs>
  <path class="cls-31" d="m177.87,127.58c-1.34,11.56-5.86,21.82-13.24,30.7-7.99,9.6-12.56,20.6-14.72,32.77-1.01,5.72-4.12,8.05-8.89,8.12-10.8.15-21.61.12-32.41,0-5.35-.05-8.42-2.83-9.75-10.27-2.11-11.81-6.94-22.17-14.47-31.4-5.56-6.82-9.82-14.3-11.3-23.13-2-6.13-1.08-12.38-.76-18.6,1.12-12.44,7.13-22.56,15.83-30.93,10.63-10.21,23.68-15.41,38.49-14.52,15.17.91,28.23,6.44,38.4,18.57,7.3,8.71,10.91,18.57,12.8,29.41.45,3.09.42,6.18.01,9.27Z"/>
  <path class="cls-30" d="m198.74,51.69c-6.14,7.1-12.88,13.62-19.6,20.18-2.29,2.24-4.21,2.27-6.33,0-2.12-2.16-1.68-4.4-.23-6.67,6.23-5.06,11.5-11.13,17.18-16.75,1.96-1.94,3.83-2.98,6.49-2.63,2.04,1.44,3.93,2.95,2.48,5.86Z"/>
  <path class="cls-17" d="m191.22,192.45c-5.78-5.66-11.61-11.28-17.31-17.02-2.05-2.07-3.56-4.58-.97-7.25,2.46-2.54,5.08-1.7,7.24.45,5.44,5.39,10.68,10.97,16.16,16.31,1.98,1.93,2.86,3.95,2.32,6.62-2.11,3.46-4.73,2.51-7.44.88Z"/>
  <path class="cls-17" d="m69.96,71.07c-6-5.84-12.01-11.66-18-17.51-1.98-1.93-2.33-4.25-.59-6.33,1.9-2.27,4.89-2.24,6.72-.47,6.37,6.2,13.05,12.13,18.62,19.11,1.32,1.65,1.24,3.55.05,5.35-2.31,2.21-4.58,1.9-6.81-.14Z"/>
  <path class="cls-30" d="m77.58,173.19c-6.24,6.41-12.49,12.82-18.73,19.23-2.5,1.99-5.03,1.68-7.59.12-1.68-2.26-1.28-4.96.44-6.39,7.07-5.87,12.78-13.12,19.79-19.02,5.61-.72,6.65.32,6.09,6.06Z"/>
  <path class="cls-23" d="m225.73,115.81c3.79,3.83,3.33,6.17-1.67,8.53-8.98.45-17.96.48-26.94-.01-4.84-.78-5.79-4.1-2.41-8.43,3.52-1.09,7.14-.51,10.69-.47,6.78.08,13.57-.59,20.33.38Z"/>
  <path class="cls-21" d="m128.84,52.56c-1.31,1.79-2.84,3.9-5.22,3.08-2.37-.81-3.24-3.18-3.23-5.78.05-8.25.04-16.5,0-24.74,0-1.82.38-3.56,2.13-4.17,1.92-.68,4.12-1.22,5.57,1.13.47.51,1.07.98,1.06,1.73-.05,9.58.56,19.17-.32,28.75Z"/>
  <path class="cls-23" d="m54.64,115.82c.55.57,1.1,1.15,1.65,1.72.88,4.53.44,5.26-4.2,7.06-8.18.01-16.35.02-24.53-.02-1.35,0-2.78.42-4.04-.44-1.36-1.69-3.16-3.18-2.41-5.75,2.13-2.56,4.83-3.27,8.14-3.09,8.45.46,16.93-.52,25.38.51Z"/>
  <path class="cls-24" d="m103.54,215.27c-1.88-2.85-.74-4.26,2.3-4.28,12.77-.07,25.54-.06,38.31-.01,3.09.01,4.09,1.42,2.39,4.24-3.57.88-7.21.4-10.81.37-10.73-.1-21.47.48-32.19-.32Z"/>
  <path class="cls-6" d="m103.55,207.67c-1.58-1.4-.8-2.76.05-4.13.23-.16.46-.44.7-.44,13.8.04,27.6-.45,41.39.24,1.14,1.46,1.24,2.93.02,4.4-14.06.46-28.11.6-42.16-.07Z"/>
  <path class="cls-19" d="m105.18,222.89c-1.87-2.77-.92-4.25,2.2-4.27,11.75-.07,23.5,0,35.24-.04,2.4,0,3.32,1.06,3.01,3.36-.42.81-1.06,1.27-2,1.26-12.82-.16-25.64.42-38.45-.31Z"/>
  <path class="cls-9" d="m119.49,231.33c-4.61-.13-9.25-.19-12.5-4.29,5.78-.98,11.61-.26,17.42-.4,5.28-.13,10.56-.05,15.84,0,1.41.01,3.36-.1,1.25,2.1-3.34,2.02-7.05,2.55-10.86,2.63-3.72.45-7.43.49-11.14-.02Z"/>
  <path class="cls-26" d="m103.54,215.27c14.33-.02,28.67-.03,43-.05-.81,1.07-1.98.85-3.08.85-12.27,0-24.55,0-36.82-.01-1.08,0-2.27.27-3.1-.78Z"/>
  <path class="cls-16" d="m145.69,203.33c-14.03.07-28.06.13-42.09.2.59-1.04,1.6-.96,2.57-.96,12.41,0,24.82,0,37.22.01.85,0,1.68.05,2.29.75Z"/>
  <path class="cls-18" d="m103.55,207.67c14.05.02,28.11.05,42.16.07-.75.84-1.75.74-2.72.74-12.26,0-24.51,0-36.77,0-.97,0-1.97.08-2.68-.81Z"/>
  <path class="cls-3" d="m105.18,222.89c11.73-.03,23.45-.05,35.18-.09,1.8,0,3.66.28,5.27-.87-.03,1.6-1.16,1.7-2.34,1.7-12.22,0-24.43,0-36.65-.05-.49,0-.97-.45-1.46-.69Z"/>
  <path class="cls-11" d="m141.49,228.73c.77-2.94-1.61-1.64-2.51-1.65-10.66-.09-21.33-.04-31.99-.04.57-1.13,1.65-.86,2.58-.86,10.19-.01,20.39-.02,30.58.03,1.01,0,2.44-.54,2.84.96.27.99-.56,1.45-1.5,1.56Z"/>
  <path class="cls-20" d="m54.64,115.82c-7.4-.02-14.79.01-22.19-.07-4.02-.05-8.06-.39-11.33,2.65,1.05-2.1,2.53-3.5,5.09-3.49,8.75.04,17.51.02,26.26.01.85,0,1.67.05,2.17.9Z"/>
  <path class="cls-8" d="m128.84,52.56c0-8.38,0-16.76.02-25.15,0-1.82.02-3.63-.77-5.33,1.41.33,1.59,1.44,1.59,2.61,0,8.84,0,17.68-.05,26.52,0,.45-.52.9-.79,1.35Z"/>
  <path class="cls-13" d="m225.73,115.81c-10.34.03-20.68.06-31.02.09.44-.28.87-.8,1.31-.81,9.45-.06,18.9-.08,28.34-.06.45,0,.91.5,1.36.77Z"/>
  <path class="cls-25" d="m23.53,124.15c9.81,0,19.62,0,29.44.01.62-.42,1.2-.46,1.75.12-1.13,1.2-2.61.74-3.95.75-7.79.04-15.58.04-23.37,0-1.32,0-2.83.51-3.86-.88Z"/>
  <path class="cls-22" d="m197.11,124.33c8.98,0,17.96,0,26.94.01-6.19,1.59-12.49.45-18.74.64-2.71.08-5.58.83-8.2-.65Z"/>
  <path class="cls-1" d="m72.33,115.76c.05,6.21-.27,12.43.76,18.6-.88-.56-1.5-1.34-1.45-2.41.26-5.4-1.11-10.87.69-16.2Z"/>
  <path class="cls-29" d="m77.58,173.19c-.26-5.65-.54-5.93-6.09-6.06,2.02-1.37,3.98-1.23,5.67.47,1.67,1.68,1.94,3.6.42,5.6Z"/>
  <path class="cls-27" d="m69.96,71.07c2.25.85,4.51,1.44,6.81.14-2.92,3.52-3.83,3.51-6.81-.14Z"/>
  <path class="cls-7" d="m119.49,231.33c3.71,0,7.43.01,11.14.02-3.72,1.15-7.43,1.23-11.14-.02Z"/>
  <path class="cls-5" d="m54.71,124.29c-.58-.04-1.16-.08-1.75-.12,2.61-1.45,4.2-3.41,3.33-6.62,2.07,2.85.91,4.95-1.58,6.74Z"/>
  <path class="cls-10" d="m191.22,192.45c2.63.96,5.24,1.76,7.44-.88-1.69,3.52-4.26,3.83-7.44.88Z"/>
  <path class="cls-4" d="m51.26,192.54c2.55.96,5.08,1.09,7.59-.12-2.48,2.93-5.01,2.78-7.59.12Z"/>
  <path class="cls-2" d="m177.87,127.58c0-3.09,0-6.18-.01-9.27,1.15,3.09,1.17,6.18.01,9.27Z"/>
  <path class="cls-14" d="m198.74,51.69c.62-2.57-1.03-4.17-2.48-5.86,3.2.95,4.59,2.67,2.48,5.86Z"/>
  <path class="cls-28" d="m172.58,65.21c-.78,2.25-.98,4.49.23,6.67-2.87-2.13-2.48-4.37-.23-6.67Z"/>
  <path class="cls-15" d="m124.55,158.09c-21.46.69-39.41-22.46-31.91-44.07,2.74-7.9,7.58-13.89,14.24-18.62.78-.55,1.75-.9,2.68-1.17,1.46-.43,3.2-1.1,4.01.82.73,1.75.59,3.17-1.59,4.42-9.88,5.66-15.3,14.19-15.1,25.77.21,12.3,9.48,23.26,22.07,26.44,11.17,2.82,25.34-3.18,30.54-13.63,6.23-12.53,4.45-28.55-9.73-37.54-1.89-1.2-5.69-2.13-3.64-5.38,1.96-3.11,4.98-.91,7.01.52,14.07,9.87,19.68,26.5,12.59,42.41-6.03,13.52-17,19.29-31.17,20.04Z"/>
  <path class="cls-12" d="m128.01,99.86c0,4.07-.01,8.14,0,12.21,0,2.34-.56,4.42-3.33,4.36-2.48-.05-2.59-2.19-2.6-4.04-.03-8.28.05-16.57-.04-24.85-.02-2.27.86-3.6,3.05-3.59,2.25.01,3,1.49,2.94,3.69-.12,4.07-.03,8.14-.03,12.21h.02Z"/>
</svg>