<?xml version="1.0" encoding="UTF-8"?>
<svg id="Capa_1" data-name="Capa 1" xmlns="http://www.w3.org/2000/svg" viewBox="0 0 266 256">
  <defs>
    <style>
      .cls-1 {
        fill: #bfbdac;
      }

      .cls-2 {
        fill: #a8a38d;
      }

      .cls-3 {
        fill: #cccbbc;
      }

      .cls-4 {
        fill: #c5c2ba;
      }

      .cls-5 {
        fill: #333;
      }

      .cls-6 {
        fill: #646464;
      }

      .cls-7 {
        fill: #898989;
      }

      .cls-8 {
        fill: #d8d8cc;
      }

      .cls-9 {
        fill: #dfddd6;
      }

      .cls-10 {
        fill: #fdfdfd;
      }

      .cls-11 {
        fill: #a8a58d;
      }

      .cls-12 {
        fill: #eeece4;
      }

      .cls-13 {
        fill: #b3b3b3;
      }

      .cls-14 {
        fill: #a7a38d;
      }

      .cls-15 {
        fill: #a9a28e;
      }

      .cls-16 {
        fill: #fefefe;
      }
    </style>
  </defs>
  <path class="cls-5" d="m190.34,132.7c-.78,11.7-5.75,21.61-13.15,30.43-7.53,8.98-11.95,19.38-13.78,30.84-.95,5.94-4.31,9.4-10.46,9.42-9.83.04-19.68-.35-29.48.15-7.05.36-10.4-4.49-11.5-9.63-1.17-5.45-2.42-10.8-4.65-16.01-2.7-6.3-6.33-11.92-10.61-17.11-7.33-8.88-11.1-18.96-11.77-30.44-1.01-17.45,5.49-31.84,18.28-43.09,11.71-10.3,25.61-14.3,41.41-12.07,21.88,3.08,35.87,15.37,43.47,35.6,1.29,3.44,2.38,7.04,2.24,10.83.59,3.7.59,7.39,0,11.09Z"/>
  <path class="cls-15" d="m115.41,217.68c-.35-2.28,1.12-2.5,2.81-2.5,13.05,0,26.09.03,39.14,0,3.25,0,2.61,2.14,2.44,4.08-.75.92-1.8.58-2.73.59-12.39.02-24.79,0-37.18.03-1.92,0-3.64-.12-4.48-2.19Z"/>
  <path class="cls-14" d="m116.98,211.92c-1.4-1.45-1.25-2.9.02-4.34,10.99-.77,22-.18,33-.3,3.03-.03,6.11-.5,9.12.38.89,1.4,1.38,2.8,0,4.2-3.85.9-7.76.4-11.64.37-10.17-.09-20.34.49-30.5-.31Z"/>
  <path class="cls-11" d="m117.81,227.06c-1.63-2.81-.64-4.2,2.43-4.21,11.71-.04,23.41.04,35.12-.07,3.39-.03,3.08,1.93,2.75,4.14-.66.72-1.54.53-2.35.53-11.98,0-23.95,0-35.93,0-.7,0-1.39.01-2.02-.38Z"/>
  <path class="cls-2" d="m132.07,235.56c-4.31.16-8.34-.7-11.85-3.36-.06-1.56,1.11-1.34,2.04-1.34,10.61-.02,21.22-.02,31.82,0,.81,0,1.77-.07,1.66,1.23-3.1,2.8-6.95,3.23-10.86,3.47-4.27.52-8.54.51-12.81,0Z"/>
  <path class="cls-8" d="m115.41,217.68c1.13,1.09,2.32,1.83,4.06,1.81,13.45-.13,26.89-.17,40.34-.23-.89,1.65-2.47,1-3.75,1.01-12.14.05-24.29.04-36.43.02-1.88,0-4.18.48-4.21-2.6Z"/>
  <path class="cls-12" d="m159.12,207.66c-14.04-.03-28.08-.05-42.12-.08.86-.98,2.03-.77,3.12-.77,11.98-.01,23.96-.01,35.94,0,1.09,0,2.27-.24,3.06.85Z"/>
  <path class="cls-9" d="m116.98,211.92c14.05-.02,28.1-.04,42.14-.06-.56.77-1.39.83-2.24.83-12.54,0-25.09.01-37.63.01-.85,0-1.68-.04-2.27-.79Z"/>
  <path class="cls-3" d="m117.81,227.06c13.43-.05,26.86-.1,40.3-.15-.41.96-1.28.96-2.11.96-11.98.01-23.96.01-35.93.01-.85,0-1.68-.07-2.25-.82Z"/>
  <path class="cls-1" d="m155.74,232.08c-11.73-1.52-23.48-1.14-35.22-.18-.1,0-.2.19-.29.29-1.13-1.89.38-1.77,1.44-1.78,10.87-.03,21.73-.03,32.6.01.87,0,2.66-.39,1.49,1.65Z"/>
  <path class="cls-4" d="m132.07,235.56c4.27,0,8.54,0,12.81,0-4.27,1.14-8.54,1.28-12.81,0Z"/>
  <path class="cls-6" d="m190.34,132.7c0-3.7,0-7.39,0-11.09,1.32,3.7,1.36,7.39,0,11.09Z"/>
  <path class="cls-10" d="m136.9,156.2c14.69.98,27.99-10.63,28.85-25.91.65-11.5-4.39-20.61-14.62-26.41-1.97-1.12-4.11-2.24-2.59-4.61,1.44-2.24,3.87-1.49,5.95-.29,10.77,6.24,16.41,15.94,17.18,28,.72,11.43-4.14,20.94-13,28.24-6.17,5.08-13.65,7.56-21.33,7.55-9.93-.01-18.59-4.28-25.14-11.94-4.92-5.76-7.92-12.68-8.54-20.17-.67-8.05,2.14-15.4,6.78-22.01,2.9-4.13,6.37-7.63,10.99-9.83,1.98-.94,4.23-1.69,5.51.74,1.26,2.38-.8,3.36-2.57,4.3-9.19,4.89-13.88,13.15-14.75,22.95-.92,10.3,5.44,23.02,17.66,27.73,3.28,1.27,6.57,2.09,9.63,1.65Z"/>
  <path class="cls-16" d="m140.72,119.21c-1.77.81-3.51,2.92-5.33.07-.29-10.11-.75-20.22.23-30.32,1.6,0,3.19,0,4.79,0,1.22,2.07.55,4.34.53,6.5-.06,7.92.4,15.84-.23,23.75Z"/>
  <path class="cls-13" d="m135.62,88.96c-.08,10.11-.16,20.22-.23,30.32-1.43-2.17-.62-4.59-.66-6.88-.13-6.39-.08-12.79-.02-19.18.01-1.45-.59-3.1.92-4.26Z"/>
  <path class="cls-7" d="m140.72,119.21c-.1-10.08-.2-20.17-.3-30.25.21.17.6.34.61.52.43,9.91,1.12,19.83-.3,29.73Z"/>
</svg>